<?xml version="1.0" encoding="UTF-8" standalone="no"?><!DOCTYPE svg PUBLIC "-//W3C//DTD SVG 1.1//EN" "http://www.w3.org/Graphics/SVG/1.1/DTD/svg11.dtd"><svg width="100%" height="100%" viewBox="0 0 8000 4500" version="1.1" xmlns="http://www.w3.org/2000/svg" xmlns:xlink="http://www.w3.org/1999/xlink" xml:space="preserve" xmlns:serif="http://www.serif.com/" style="fill-rule:evenodd;clip-rule:evenodd;stroke-linejoin:round;stroke-miterlimit:2;"><path d="M0,4121.625l2373.583,-1566.917c0,0 2033.875,-666.167 2023.25,-666.167c-10.625,0 3121.625,-194.875 3121.625,-194.875l481.542,28.333l0,2778l-8000,0l0,-378.375l-0,0.001Z" style="fill:#5b507a;fill-rule:nonzero;"/><path d="M0,0l0,2977.542l6324.375,-1488.792l-66.125,-1488.75" style="fill:#ffa69e;fill-rule:nonzero;"/><path d="M0,4144.458c0,0 369.792,-124 1190.125,-484.25c844.5,-370.833 1020.833,-1030.25 1690.167,-1133.875c869,-134.667 1190.542,-276.333 1190.542,-276.333c0,0 793.708,-302.375 1413.792,24.75c426.917,231.792 1401.417,-94.167 1519,-134.917c8.02,-2.764 16.202,-5.032 24.5,-6.792l971.875,-205.5l0,-1084.25l-2448.083,294.208l-602.333,45.833l-1126.792,492.625l-825.583,322.833l-1087.792,679.917l-740.542,333.083l-1168.875,641.333l0,491.333l-0.001,0.002Z" style="fill:#b29bc7;fill-rule:nonzero;"/><path d="M0,2708.333l0,1060.905c0,0 1012.731,-201.509 1564.679,-791.696c622.317,-665.431 1830.301,-750.802 2179.389,-1049.249c357.769,-305.87 1122.305,-582.487 1413.263,-563.221c185.734,12.299 933.123,26.289 1167.044,-45.432c461.375,-141.458 903.07,-171.627 1477.554,-69.547c838.542,149 198.07,-719.801 198.07,-719.801l0,-530.292l-2663.042,0c0,0 -1091.125,950.75 -1927.542,960.208c-836.417,9.458 -1984.417,874 -1984.417,874c0,0 -1050,836.25 -1425,614.167" style="fill:#177e89;fill-rule:nonzero;"/></svg>