<?xml version="1.0" encoding="UTF-8" standalone="no"?><!DOCTYPE svg PUBLIC "-//W3C//DTD SVG 1.1//EN" "http://www.w3.org/Graphics/SVG/1.1/DTD/svg11.dtd"><svg width="100%" height="100%" viewBox="0 0 114 268" version="1.1" xmlns="http://www.w3.org/2000/svg" xmlns:xlink="http://www.w3.org/1999/xlink" xml:space="preserve" xmlns:serif="http://www.serif.com/" style="fill-rule:evenodd;clip-rule:evenodd;stroke-linejoin:round;stroke-miterlimit:2;"><path d="M2.746,30.11l7.336,11.328c5.872,9.067 11.743,18.134 17.615,27.201c7.101,10.966 14.202,21.932 21.303,32.898c6.134,9.472 12.268,18.944 18.402,28.417c2.968,4.582 5.891,9.198 8.905,13.75c0.042,0.064 0.083,0.129 0.125,0.193l0,-20.189c-2.445,3.777 -4.891,7.553 -7.336,11.329c-5.872,9.067 -11.743,18.134 -17.615,27.201c-7.101,10.966 -14.202,21.931 -21.303,32.897c-6.134,9.472 -12.268,18.945 -18.402,28.417c-2.968,4.583 -5.988,9.136 -8.905,13.751c-0.041,0.065 -0.083,0.128 -0.125,0.193c-1.462,2.295 -2.253,4.774 -2.373,7.436c-0.596,2.658 -0.477,5.316 0.357,7.975c0.619,2.603 1.812,4.87 3.58,6.801c1.41,2.178 3.28,3.895 5.611,5.151c4.642,2.453 10.265,3.682 15.411,2.017c1.593,-0.672 3.185,-1.344 4.778,-2.017c3.005,-1.778 5.397,-4.169 7.175,-7.175c2.445,-3.776 4.891,-7.552 7.336,-11.328c5.871,-9.067 11.743,-18.134 17.615,-27.201c7.101,-10.966 14.202,-21.931 21.303,-32.897c6.134,-9.473 12.268,-18.945 18.402,-28.417c2.968,-4.583 5.988,-9.136 8.905,-13.751c0.041,-0.065 0.083,-0.128 0.125,-0.193c3.707,-5.724 3.707,-14.464 0,-20.189c-2.445,-3.776 -4.891,-7.552 -7.336,-11.328c-5.872,-9.067 -11.743,-18.134 -17.615,-27.201c-7.101,-10.966 -14.202,-21.931 -21.303,-32.897c-6.134,-9.472 -12.269,-18.945 -18.403,-28.417c-2.968,-4.584 -5.912,-9.183 -8.904,-13.751c-0.042,-0.064 -0.084,-0.129 -0.125,-0.193c-2.815,-4.346 -6.877,-7.793 -11.953,-9.191c-2.658,-0.834 -5.317,-0.953 -7.975,-0.357c-2.662,0.121 -5.14,0.912 -7.436,2.373c-4.27,2.753 -8.03,6.853 -9.191,11.953c-1.165,5.113 -0.921,10.876 2.016,15.411" style="fill:#fff;fill-rule:nonzero;"/></svg>