<svg id="Layer_1" data-name="Layer 1" xmlns="http://www.w3.org/2000/svg" viewBox="0 0 799.99 800"><defs><style>.cls-1{fill:#fff;}</style></defs><path class="cls-1" d="M400,0C179.09,0,0,179.09,0,400S179.09,800,400,800,800,620.9,800,400,620.9,0,400,0Zm0,140.5L636.7,288.1H163.3ZM639.65,523.8h0a42.86,42.86,0,0,1-42.86,42.86H203.23a42.86,42.86,0,0,1-42.86-42.86V297.49a43.25,43.25,0,0,1,.67-7.33l226.16,141c.28.18.57.29.86.45s.6.33.91.48a23,23,0,0,0,4.92,1.92c.18.05.35.07.52.11a24.17,24.17,0,0,0,5.58.71h0a23.51,23.51,0,0,0,5.58-.71c.18,0,.35-.06.52-.11a24.07,24.07,0,0,0,4.93-1.92c.3-.15.61-.31.91-.48s.58-.27.86-.45L639,290.16a42.16,42.16,0,0,1,.67,7.33V523.8Z" transform="translate(0)"/></svg>