<svg id="Livello_1" data-name="Livello 1" xmlns="http://www.w3.org/2000/svg" viewBox="0 0 1920 1080"><defs><style>.cls-1{fill:#5b507a;}.cls-2{fill:#ffa69e;}.cls-3{fill:#b29bc7;}.cls-4{fill:#f8ffe5;}.cls-5{fill:#177e89;}</style></defs><path class="cls-1" d="M0,989.19,569.66,613.13s488.13-159.88,485.58-159.88,749.19-46.77,749.19-46.77l115.57,6.8V1080H0Z"/><polyline class="cls-2" points="0 0 0 714.61 1517.85 357.3 1501.98 0"/><path class="cls-3" d="M0,994.67s88.75-29.76,285.63-116.22c202.68-89,245-247.26,405.64-272.13C899.83,574,977,540,977,540s190.49-72.57,339.31,5.94c102.46,55.63,336.34-22.6,364.56-32.38a49.69,49.69,0,0,1,5.88-1.63L1920,462.61V202.39L1332.46,273,1187.9,284,917.47,402.23,719.33,479.71,458.26,642.89,280.53,722.83,0,876.75Z"/><path class="cls-4" d="M0,933.06s163-68.92,241.88-134.93c65.79-55,156-88.28,194-100.67a104.85,104.85,0,0,0,33.59-18.32c42.7-34.67,162.86-129.41,228.59-152.75C779,497.66,711.3,487.83,847,461.76s249.45-69.55,271.75-103.56,131.15-52.92,190.11-38.55,323.91-20.79,323.91-20.79L1920,221.76V57L1745.76,26.35,1289.94,80.78,1047.3,231.58,779.71,402.8,633.44,432.28l-127,69.16L321.63,657.91,223,679.46,102.8,732.75,0,813.54Z"/><path class="cls-5" d="M0,650V838.2s264.94-72.57,404.4-201.83S740,435.11,862.48,406.48c91.64-21.43,241.92-129.69,311.75-182.82a293.39,293.39,0,0,1,91.67-47c110.73-33.95,369.7-102.54,560.36-68.67,201.25,35.76,93.74,19.28,93.74,19.28V0H1280.87S1019,228.18,818.26,230.45,342,440.21,342,440.21,90,640.91,0,587.61"/></svg>