<svg id="Livello_1" data-name="Livello 1" xmlns="http://www.w3.org/2000/svg" viewBox="0 0 24 15"><defs><style>.cls-1{fill:#fff;}</style></defs><path class="cls-1" d="M22,7H15V5h7Zm1.73,10c-.45,1.3-2,3-5.11,3s-5.56-1.73-5.56-5.68S15.39,8.4,18.53,8.4a5,5,0,0,1,5.37,4.43A13.55,13.55,0,0,1,24,15H16a2.7,2.7,0,0,0,4.59,2ZM16,13h5a2.24,2.24,0,0,0-2.48-2.22A2.29,2.29,0,0,0,16,13ZM6.47,20H0V5H7c5.48.08,5.58,5.44,2.72,6.91C13.13,13.19,13.25,20,6.47,20ZM3,11H6.58c2.51,0,2.91-3-.31-3H3Zm3.39,3H3v3H6.34C9.4,17,9.21,14,6.39,14Z" transform="translate(0 -5)"/></svg>