<?xml version="1.0" encoding="UTF-8" standalone="no"?><!DOCTYPE svg PUBLIC "-//W3C//DTD SVG 1.1//EN" "http://www.w3.org/Graphics/SVG/1.1/DTD/svg11.dtd"><svg width="100%" height="100%" viewBox="0 0 114 268" version="1.1" xmlns="http://www.w3.org/2000/svg" xmlns:xlink="http://www.w3.org/1999/xlink" xml:space="preserve" xmlns:serif="http://www.serif.com/" style="fill-rule:evenodd;clip-rule:evenodd;stroke-linejoin:round;stroke-miterlimit:2;"><path d="M76.466,9.956c-2.445,3.776 -4.891,7.552 -7.336,11.328c-5.872,9.067 -11.743,18.134 -17.615,27.201c-7.101,10.966 -14.202,21.932 -21.303,32.898c-6.134,9.472 -12.268,18.944 -18.402,28.417c-2.968,4.582 -5.988,9.135 -8.905,13.75c-0.041,0.065 -0.083,0.129 -0.125,0.193c-3.707,5.725 -3.707,14.465 0,20.189l7.336,11.328c5.872,9.067 11.743,18.134 17.615,27.201c7.101,10.966 14.202,21.932 21.303,32.898c6.134,9.472 12.268,18.944 18.402,28.417c2.969,4.583 5.913,9.183 8.905,13.75c0.042,0.064 0.083,0.129 0.125,0.193c2.815,4.347 6.877,7.794 11.953,9.191c2.658,0.834 5.316,0.953 7.975,0.358c2.661,-0.121 5.14,-0.912 7.436,-2.374c4.27,-2.753 8.029,-6.853 9.191,-11.952c1.165,-5.114 0.921,-10.876 -2.016,-15.412c-2.446,-3.776 -4.891,-7.552 -7.336,-11.328c-5.872,-9.067 -11.743,-18.134 -17.615,-27.201c-7.101,-10.966 -14.202,-21.931 -21.303,-32.897c-6.134,-9.472 -12.269,-18.945 -18.403,-28.417c-2.967,-4.583 -5.891,-9.198 -8.904,-13.751c-0.043,-0.064 -0.084,-0.128 -0.125,-0.193l0,20.189c2.445,-3.776 4.89,-7.552 7.336,-11.328c5.871,-9.067 11.743,-18.134 17.615,-27.201c7.101,-10.966 14.202,-21.932 21.303,-32.898c6.134,-9.472 12.268,-18.944 18.402,-28.417c2.968,-4.582 5.988,-9.135 8.905,-13.75c0.041,-0.065 0.083,-0.129 0.125,-0.193c1.461,-2.296 2.252,-4.775 2.373,-7.436c0.596,-2.659 0.476,-5.317 -0.357,-7.975c-0.619,-2.603 -1.812,-4.87 -3.58,-6.802c-1.41,-2.177 -3.281,-3.894 -5.611,-5.151c-4.642,-2.452 -10.265,-3.682 -15.411,-2.016l-4.778,2.016c-3.005,1.778 -5.397,4.17 -7.175,7.175" style="fill:#fff;fill-rule:nonzero;"/></svg>